<svg width="141" height="42" xmlns="http://www.w3.org/2000/svg"><g fill="none" fill-rule="evenodd"><path d="M20.513 41.308C9.184 41.308 0 32.061 0 20.654S9.184 0 20.513 0c11.33 0 20.513 9.247 20.513 20.654s-9.184 20.654-20.513 20.654zm.114-9.65c5.973 0 10.816-4.875 10.816-10.89 0-6.014-4.843-10.89-10.816-10.89-5.974 0-10.816 4.876-10.816 10.89 0 6.015 4.842 10.89 10.816 10.89z" fill="#2b2b2b"/><ellipse fill="#FED9CA" cx="134.011" cy="28.518" rx="6.243" ry="6.286"/><path d="M59.143 15.393l5.571-8.572h8.25l-9.643 13.554a138.416 138.416 0 015.84 7.821C70.91 30.732 72.304 33 73.339 35h-8.571l-1.072-2.009a48.997 48.997 0 00-1.446-2.518 72.039 72.039 0 00-1.688-2.625 36.46 36.46 0 00-1.74-2.384 37.058 37.058 0 00-1.635 2.25 52.945 52.945 0 00-1.58 2.491c-.5.84-.99 1.67-1.473 2.491-.482.822-.902 1.59-1.259 2.304h-8.143c.429-.893 1.018-1.946 1.768-3.16.75-1.215 1.562-2.474 2.438-3.777a104.658 104.658 0 012.758-3.911 102.41 102.41 0 012.84-3.67 754.188 754.188 0 01-4.822-6.83c-1.607-2.304-3.196-4.58-4.768-6.83h8.625l5.572 8.57zm17.143 5.732c0-2.5.384-4.687 1.151-6.563.768-1.875 1.777-3.437 3.027-4.687a12.591 12.591 0 014.313-2.84 13.503 13.503 0 015.009-.964c4 0 7.16 1.224 9.482 3.67 2.321 2.447 3.482 6.045 3.482 10.795 0 .464-.018.973-.054 1.526a79.9 79.9 0 01-.107 1.474H84.482c.179 1.643.947 2.946 2.304 3.91 1.357.965 3.178 1.447 5.464 1.447 1.464 0 2.902-.134 4.313-.402 1.41-.268 2.562-.598 3.455-.991l1.071 6.482c-.428.214-1 .429-1.714.643-.714.214-1.509.402-2.384.563-.875.16-1.812.294-2.812.401-1 .107-2 .161-3 .161-2.536 0-4.741-.375-6.617-1.125-1.875-.75-3.428-1.777-4.66-3.08-1.232-1.304-2.143-2.849-2.732-4.634-.59-1.786-.884-3.715-.884-5.786zm18.75-3.054a8.24 8.24 0 00-.349-1.982 4.949 4.949 0 00-.91-1.714 4.85 4.85 0 00-1.554-1.232c-.625-.322-1.402-.482-2.33-.482-.893 0-1.66.151-2.304.455a4.76 4.76 0 00-1.607 1.205 5.37 5.37 0 00-.99 1.742c-.233.66-.403 1.33-.51 2.008h10.554zm30.857-4.178a59.53 59.53 0 00-2.518-.563c-.964-.196-2-.294-3.107-.294-.5 0-1.098.044-1.795.134-.696.089-1.223.187-1.58.294V35h-7.982V8.321c1.428-.5 3.116-.973 5.062-1.42 1.947-.446 4.116-.669 6.51-.669.428 0 .946.027 1.553.08a31.616 31.616 0 013.643.536 8.57 8.57 0 011.553.456l-1.34 6.589z" fill="#2b2b2b" fill-rule="nonzero"/></g></svg>